<?xml version="1.0" encoding="utf-8"?>
<!-- Generator: Adobe Illustrator 24.0.2, SVG Export Plug-In . SVG Version: 6.00 Build 0)  -->
<svg version="1.1" id="Capa_1" xmlns="http://www.w3.org/2000/svg" xmlns:xlink="http://www.w3.org/1999/xlink" x="0px" y="0px"
	 viewBox="0 0 30.66 22.71" style="enable-background:new 0 0 30.66 22.71;" xml:space="preserve">
<style type="text/css">
	.st0{fill-rule:evenodd;clip-rule:evenodd;fill:#148EFF;}
	.st1{fill-rule:evenodd;clip-rule:evenodd;fill:#FF5E14;}
</style>
<g>
	<g>
		<path class="st0" d="M23.22,14.31l-0.6,5.01c-0.58,4.82-1.64,1.89-2.01,0.14L20,16.55c-0.23-1.13-0.93-1.25-1.24,0.02l-0.81,3.35
			c-0.72,2.99-1.96,4.45-1.96-0.15c0-2.12,0-3.7,0-5.82c0-1.24-0.16-1.91-0.66-2.58v-3.8l11.3-3.68c5.8-1.89,4.87-0.65,0.23,3.42
			C26.07,8,25.47,8.59,25.01,9.12l0,0c0,0-2.23-0.14-3.14,0.89c0,0,1.72-0.31,2.51-0.08C23.45,11.33,23.44,12.45,23.22,14.31z"/>
		<path class="st0" d="M19.8,4.91c-1.37,0-2.66-1.1-2.89-2.46C16.68,1.1,17.61,0,18.98,0c1.37,0,2.66,1.1,2.89,2.46
			C22.1,3.81,21.17,4.91,19.8,4.91z"/>
	</g>
	<g>
		<path class="st1" d="M7.45,14.31l0.6,5.01c0.58,4.82,1.64,1.89,2.01,0.14l0.6-2.91c0.23-1.13,0.93-1.25,1.24,0.02l0.81,3.35
			c0.72,2.99,1.96,4.45,1.96-0.15c0-2.12,0-3.7,0-5.82c0-1.24,0.16-1.91,0.66-2.58v-3.8L4.03,3.9c-5.8-1.89-4.87-0.65-0.23,3.42
			C4.59,8,5.19,8.59,5.65,9.12c0,0,2.24-0.14,3.14,0.89c0,0-1.72-0.31-2.51-0.08C7.21,11.33,7.22,12.45,7.45,14.31z"/>
		<path class="st1" d="M10.86,4.91c1.37,0,2.66-1.1,2.89-2.46C13.98,1.1,13.05,0,11.68,0c-1.37,0-2.66,1.1-2.89,2.46
			C8.57,3.81,9.49,4.91,10.86,4.91z"/>
	</g>
	<path class="st0" d="M6,9.55c0,0,5.68-0.42,1.15,2.53C5.69,11.55,5.84,9.88,6,9.55z"/>
	<path class="st1" d="M24.66,9.55c0,0-5.68-0.42-1.15,2.53C24.97,11.55,24.82,9.88,24.66,9.55z"/>
</g>
</svg>
