<?xml version="1.0" encoding="utf-8"?>
<!-- Generator: Adobe Illustrator 24.0.2, SVG Export Plug-In . SVG Version: 6.00 Build 0)  -->
<svg version="1.1" id="Capa_1" xmlns="http://www.w3.org/2000/svg" xmlns:xlink="http://www.w3.org/1999/xlink" x="0px" y="0px"
	 viewBox="0 0 185.02 23.85" style="enable-background:new 0 0 185.02 23.85;" xml:space="preserve">
<style type="text/css">
	.st0{fill-rule:evenodd;clip-rule:evenodd;fill:#148EFF;}
	.st1{fill-rule:evenodd;clip-rule:evenodd;fill:#FF5E14;}
</style>
<g>
	<path d="M32.46,11.62c0-0.52,0.09-1.03,0.28-1.54c0.19-0.51,0.46-0.96,0.82-1.36c0.36-0.4,0.8-0.72,1.32-0.97S36,7.37,36.66,7.37
		c0.78,0,1.46,0.17,2.03,0.52c0.57,0.34,1,0.79,1.28,1.34l-1.27,0.88c-0.11-0.24-0.25-0.44-0.41-0.61
		c-0.16-0.16-0.33-0.29-0.52-0.39c-0.18-0.1-0.38-0.17-0.58-0.21c-0.2-0.04-0.4-0.07-0.59-0.07c-0.42,0-0.78,0.08-1.09,0.25
		s-0.56,0.39-0.77,0.65c-0.2,0.27-0.36,0.57-0.46,0.91c-0.1,0.34-0.16,0.68-0.16,1.01c0,0.38,0.06,0.74,0.18,1.09
		s0.29,0.65,0.51,0.92c0.22,0.26,0.48,0.48,0.79,0.64c0.31,0.16,0.65,0.24,1.01,0.24c0.19,0,0.39-0.02,0.6-0.07
		c0.21-0.05,0.41-0.12,0.59-0.23c0.19-0.1,0.36-0.24,0.52-0.4c0.16-0.16,0.29-0.36,0.38-0.59l1.36,0.78
		c-0.14,0.32-0.33,0.6-0.58,0.85s-0.54,0.45-0.85,0.62s-0.65,0.3-1.01,0.38c-0.36,0.09-0.71,0.13-1.06,0.13
		c-0.61,0-1.16-0.13-1.67-0.38c-0.5-0.26-0.94-0.59-1.3-1c-0.36-0.41-0.65-0.88-0.85-1.4C32.56,12.7,32.46,12.16,32.46,11.62z"/>
	<path d="M43.96,16.06c-0.51,0-0.97-0.09-1.38-0.26c-0.41-0.18-0.75-0.41-1.04-0.71c-0.28-0.3-0.5-0.65-0.65-1.04
		s-0.23-0.8-0.23-1.24c0-0.44,0.08-0.86,0.23-1.25s0.37-0.74,0.65-1.04c0.28-0.3,0.63-0.54,1.04-0.71c0.41-0.18,0.87-0.26,1.38-0.26
		c0.51,0,0.97,0.09,1.37,0.26c0.4,0.18,0.75,0.41,1.03,0.71c0.28,0.3,0.5,0.65,0.65,1.04s0.23,0.81,0.23,1.25
		c0,0.43-0.08,0.84-0.23,1.24s-0.37,0.74-0.65,1.04c-0.28,0.3-0.62,0.54-1.03,0.71C44.93,15.97,44.47,16.06,43.96,16.06z
		 M42.31,12.81c0,0.28,0.04,0.53,0.13,0.76s0.2,0.43,0.35,0.59s0.32,0.3,0.52,0.39c0.2,0.09,0.42,0.14,0.65,0.14
		c0.23,0,0.45-0.05,0.65-0.14c0.2-0.09,0.37-0.22,0.52-0.39c0.15-0.17,0.26-0.37,0.35-0.6s0.13-0.49,0.13-0.77
		c0-0.27-0.04-0.52-0.13-0.76s-0.2-0.43-0.35-0.6c-0.15-0.17-0.32-0.3-0.52-0.39c-0.2-0.09-0.42-0.14-0.65-0.14
		c-0.23,0-0.45,0.05-0.65,0.14c-0.2,0.1-0.37,0.23-0.52,0.4s-0.26,0.37-0.35,0.6C42.35,12.28,42.31,12.54,42.31,12.81z"/>
	<path d="M58.09,15.94h-1.61v-3.53c0-0.5-0.09-0.87-0.26-1.1c-0.17-0.23-0.41-0.35-0.71-0.35c-0.32,0-0.62,0.12-0.9,0.37
		c-0.28,0.24-0.48,0.56-0.6,0.95v3.66H52.4v-3.53c0-0.5-0.09-0.87-0.26-1.1c-0.17-0.23-0.41-0.35-0.71-0.35
		c-0.31,0-0.61,0.12-0.89,0.36c-0.28,0.24-0.49,0.56-0.61,0.95v3.67h-1.61V9.65h1.45v1.16c0.23-0.41,0.55-0.72,0.95-0.94
		c0.4-0.22,0.87-0.33,1.39-0.33c0.53,0,0.94,0.13,1.22,0.38c0.29,0.26,0.47,0.57,0.55,0.95c0.26-0.43,0.58-0.76,0.97-0.99
		s0.84-0.34,1.34-0.34c0.38,0,0.7,0.07,0.95,0.22s0.44,0.33,0.58,0.56c0.14,0.23,0.23,0.5,0.28,0.79c0.05,0.3,0.08,0.6,0.08,0.9
		V15.94z"/>
	<path d="M63.26,16.06c-0.5,0-0.93-0.11-1.3-0.33c-0.37-0.22-0.66-0.52-0.86-0.89v3.66H59.5V9.65h1.4v1.08
		c0.23-0.37,0.53-0.66,0.9-0.87c0.37-0.21,0.79-0.32,1.27-0.32c0.42,0,0.82,0.09,1.18,0.26c0.36,0.17,0.67,0.4,0.93,0.7
		c0.26,0.29,0.46,0.64,0.61,1.03s0.22,0.81,0.22,1.25c0,0.46-0.07,0.88-0.2,1.28c-0.14,0.4-0.33,0.75-0.57,1.04
		c-0.24,0.3-0.53,0.53-0.87,0.7S63.66,16.06,63.26,16.06z M62.72,14.69c0.24,0,0.46-0.05,0.67-0.16s0.38-0.24,0.52-0.42
		c0.14-0.18,0.26-0.38,0.34-0.61s0.12-0.47,0.12-0.72c0-0.26-0.04-0.51-0.13-0.74c-0.09-0.23-0.21-0.43-0.37-0.59
		c-0.16-0.17-0.34-0.3-0.55-0.4c-0.21-0.1-0.44-0.14-0.69-0.14c-0.15,0-0.31,0.03-0.47,0.08c-0.16,0.05-0.31,0.13-0.44,0.22
		c-0.14,0.1-0.26,0.21-0.37,0.34s-0.19,0.27-0.25,0.42v1.48c0.14,0.36,0.36,0.66,0.66,0.89C62.06,14.57,62.38,14.69,62.72,14.69z"/>
	<path d="M68.82,16.06c-0.3,0-0.59-0.05-0.85-0.15c-0.26-0.1-0.49-0.24-0.68-0.42c-0.19-0.18-0.34-0.39-0.45-0.63
		c-0.11-0.24-0.16-0.5-0.16-0.79c0-0.3,0.07-0.57,0.2-0.82s0.32-0.47,0.55-0.64s0.52-0.31,0.85-0.41s0.69-0.15,1.08-0.15
		c0.28,0,0.55,0.02,0.82,0.07c0.27,0.05,0.51,0.12,0.71,0.2v-0.36c0-0.42-0.12-0.74-0.35-0.96c-0.24-0.22-0.59-0.34-1.05-0.34
		c-0.34,0-0.66,0.06-0.98,0.18c-0.32,0.12-0.65,0.3-0.98,0.53l-0.49-1.02c0.81-0.54,1.68-0.8,2.62-0.8c0.9,0,1.61,0.22,2.11,0.67
		s0.75,1.09,0.75,1.93v1.96c0,0.17,0.03,0.29,0.09,0.36c0.06,0.07,0.16,0.11,0.29,0.12v1.37c-0.27,0.06-0.51,0.08-0.71,0.08
		c-0.3,0-0.54-0.07-0.7-0.2c-0.16-0.14-0.27-0.32-0.31-0.54l-0.04-0.35c-0.28,0.37-0.62,0.65-1.02,0.84S69.28,16.06,68.82,16.06z
		 M69.28,14.88c0.27,0,0.53-0.05,0.77-0.14c0.24-0.1,0.43-0.22,0.57-0.38c0.18-0.14,0.26-0.29,0.26-0.46v-0.72
		c-0.19-0.07-0.4-0.13-0.62-0.17c-0.22-0.04-0.44-0.07-0.65-0.07c-0.42,0-0.76,0.09-1.02,0.28c-0.26,0.19-0.4,0.43-0.4,0.71
		c0,0.27,0.1,0.5,0.31,0.68C68.72,14.79,68.97,14.88,69.28,14.88z"/>
	<path d="M77.74,11.04c-0.49,0.01-0.92,0.1-1.31,0.28c-0.38,0.18-0.66,0.45-0.83,0.81v3.8h-1.61V9.65h1.48V11
		c0.11-0.22,0.24-0.41,0.4-0.58s0.32-0.32,0.49-0.45c0.18-0.13,0.35-0.23,0.53-0.29c0.18-0.07,0.35-0.1,0.52-0.1
		c0.09,0,0.15,0,0.2,0s0.09,0,0.13,0.01V11.04z"/>
	<path d="M81.24,16.06c-0.5,0-0.96-0.09-1.37-0.26c-0.41-0.17-0.76-0.41-1.04-0.7c-0.29-0.3-0.51-0.64-0.67-1.03
		c-0.16-0.39-0.23-0.8-0.23-1.24c0-0.45,0.08-0.87,0.23-1.27s0.37-0.74,0.66-1.04s0.64-0.54,1.05-0.71
		c0.41-0.18,0.87-0.26,1.39-0.26c0.51,0,0.97,0.09,1.37,0.26c0.4,0.18,0.75,0.41,1.03,0.71s0.5,0.64,0.65,1.03
		c0.15,0.39,0.22,0.8,0.22,1.22c0,0.1,0,0.2-0.01,0.3c0,0.1-0.01,0.18-0.03,0.24h-4.86c0.02,0.25,0.08,0.47,0.18,0.66
		c0.1,0.19,0.22,0.36,0.37,0.49c0.15,0.14,0.32,0.24,0.52,0.31c0.19,0.07,0.39,0.11,0.6,0.11c0.32,0,0.62-0.08,0.91-0.23
		c0.28-0.16,0.48-0.36,0.58-0.62l1.38,0.38c-0.23,0.48-0.6,0.87-1.11,1.18C82.55,15.91,81.94,16.06,81.24,16.06z M82.87,12.27
		c-0.04-0.47-0.21-0.85-0.52-1.13c-0.31-0.28-0.68-0.43-1.12-0.43c-0.22,0-0.42,0.04-0.61,0.11c-0.19,0.08-0.35,0.18-0.5,0.32
		c-0.14,0.14-0.26,0.3-0.35,0.49c-0.09,0.19-0.15,0.4-0.16,0.64H82.87z"/>
	<path d="M94.46,14.98C93.78,15.66,92.99,16,92.09,16c-0.56,0-1.09-0.11-1.58-0.34c-0.49-0.22-0.92-0.53-1.28-0.92
		c-0.36-0.39-0.65-0.85-0.86-1.39c-0.21-0.53-0.32-1.11-0.32-1.72c0-0.58,0.11-1.13,0.32-1.65c0.21-0.52,0.5-0.97,0.88-1.36
		s0.81-0.7,1.31-0.92s1.05-0.34,1.64-0.34c0.8,0,1.49,0.17,2.06,0.5c0.57,0.34,1,0.79,1.29,1.36l-1.24,0.91
		c-0.22-0.42-0.52-0.75-0.91-0.97c-0.39-0.22-0.81-0.34-1.27-0.34c-0.36,0-0.69,0.08-0.99,0.23c-0.3,0.15-0.56,0.36-0.77,0.62
		c-0.21,0.26-0.38,0.57-0.49,0.91c-0.12,0.34-0.17,0.71-0.17,1.09c0,0.4,0.06,0.77,0.19,1.12c0.13,0.35,0.3,0.65,0.53,0.91
		s0.49,0.46,0.8,0.61s0.64,0.22,1,0.22c0.82,0,1.57-0.39,2.23-1.16v-0.6h-1.72v-1.21h3.08v4.38h-1.37V14.98z"/>
	<path d="M99.01,16.06c-0.65,0-1.14-0.21-1.48-0.62c-0.34-0.42-0.5-1.03-0.5-1.85V9.65h1.61v3.59c0,0.97,0.35,1.45,1.04,1.45
		c0.31,0,0.61-0.09,0.91-0.28s0.53-0.47,0.71-0.86v-3.9h1.61v4.44c0,0.17,0.03,0.29,0.09,0.36c0.06,0.07,0.16,0.11,0.29,0.12v1.37
		c-0.16,0.03-0.29,0.05-0.4,0.06c-0.11,0.01-0.21,0.01-0.29,0.01c-0.29,0-0.52-0.07-0.7-0.2c-0.18-0.13-0.29-0.31-0.32-0.55
		l-0.04-0.5c-0.28,0.43-0.64,0.76-1.08,0.97C100.02,15.95,99.54,16.06,99.01,16.06z"/>
	<path d="M106.22,16.06c-0.3,0-0.59-0.05-0.85-0.15c-0.26-0.1-0.49-0.24-0.68-0.42c-0.19-0.18-0.34-0.39-0.45-0.63
		c-0.11-0.24-0.16-0.5-0.16-0.79c0-0.3,0.07-0.57,0.2-0.82s0.32-0.47,0.55-0.64c0.24-0.18,0.52-0.31,0.85-0.41s0.69-0.15,1.08-0.15
		c0.28,0,0.55,0.02,0.82,0.07c0.27,0.05,0.51,0.12,0.71,0.2v-0.36c0-0.42-0.12-0.74-0.35-0.96s-0.59-0.34-1.05-0.34
		c-0.34,0-0.66,0.06-0.98,0.18s-0.65,0.3-0.98,0.53l-0.49-1.02c0.81-0.54,1.68-0.8,2.62-0.8c0.9,0,1.61,0.22,2.11,0.67
		s0.75,1.09,0.75,1.93v1.96c0,0.17,0.03,0.29,0.09,0.36c0.06,0.07,0.16,0.11,0.29,0.12v1.37c-0.27,0.06-0.51,0.08-0.71,0.08
		c-0.3,0-0.54-0.07-0.7-0.2c-0.16-0.14-0.27-0.32-0.31-0.54l-0.04-0.35c-0.28,0.37-0.62,0.65-1.02,0.84
		C107.11,15.96,106.68,16.06,106.22,16.06z M106.68,14.88c0.27,0,0.53-0.05,0.77-0.14c0.24-0.1,0.43-0.22,0.57-0.38
		c0.18-0.14,0.26-0.29,0.26-0.46v-0.72c-0.19-0.07-0.4-0.13-0.62-0.17c-0.22-0.04-0.44-0.07-0.65-0.07c-0.42,0-0.76,0.09-1.02,0.28
		c-0.26,0.19-0.4,0.43-0.4,0.71c0,0.27,0.1,0.5,0.31,0.68C106.12,14.79,106.38,14.88,106.68,14.88z"/>
	<path d="M115.14,11.04c-0.49,0.01-0.92,0.1-1.31,0.28c-0.38,0.18-0.66,0.45-0.83,0.81v3.8h-1.61V9.65h1.48V11
		c0.11-0.22,0.24-0.41,0.4-0.58c0.15-0.17,0.32-0.32,0.49-0.45c0.18-0.13,0.35-0.23,0.53-0.29c0.18-0.07,0.35-0.1,0.52-0.1
		c0.09,0,0.15,0,0.2,0s0.09,0,0.13,0.01V11.04z"/>
	<path d="M117.67,16.06c-0.3,0-0.59-0.05-0.85-0.15c-0.26-0.1-0.49-0.24-0.68-0.42c-0.19-0.18-0.34-0.39-0.45-0.63
		c-0.11-0.24-0.16-0.5-0.16-0.79c0-0.3,0.07-0.57,0.2-0.82s0.32-0.47,0.55-0.64c0.24-0.18,0.52-0.31,0.85-0.41s0.69-0.15,1.08-0.15
		c0.28,0,0.55,0.02,0.82,0.07c0.27,0.05,0.51,0.12,0.71,0.2v-0.36c0-0.42-0.12-0.74-0.35-0.96s-0.59-0.34-1.05-0.34
		c-0.34,0-0.66,0.06-0.98,0.18s-0.65,0.3-0.98,0.53l-0.49-1.02c0.81-0.54,1.68-0.8,2.62-0.8c0.9,0,1.61,0.22,2.11,0.67
		s0.75,1.09,0.75,1.93v1.96c0,0.17,0.03,0.29,0.09,0.36c0.06,0.07,0.16,0.11,0.29,0.12v1.37c-0.27,0.06-0.51,0.08-0.71,0.08
		c-0.3,0-0.54-0.07-0.7-0.2c-0.16-0.14-0.27-0.32-0.31-0.54l-0.04-0.35c-0.28,0.37-0.62,0.65-1.02,0.84
		C118.56,15.96,118.13,16.06,117.67,16.06z M118.13,14.88c0.27,0,0.53-0.05,0.77-0.14c0.24-0.1,0.43-0.22,0.57-0.38
		c0.18-0.14,0.26-0.29,0.26-0.46v-0.72c-0.19-0.07-0.4-0.13-0.62-0.17c-0.22-0.04-0.44-0.07-0.65-0.07c-0.42,0-0.76,0.09-1.02,0.28
		c-0.26,0.19-0.4,0.43-0.4,0.71c0,0.27,0.1,0.5,0.31,0.68C117.57,14.79,117.82,14.88,118.13,14.88z"/>
	<path d="M128.69,15.94h-1.61v-3.53c0-0.5-0.09-0.87-0.26-1.1s-0.42-0.35-0.73-0.35c-0.16,0-0.32,0.03-0.49,0.1
		s-0.33,0.15-0.47,0.27c-0.15,0.12-0.28,0.25-0.4,0.41c-0.12,0.16-0.21,0.34-0.26,0.53v3.67h-1.61V9.65h1.45v1.16
		c0.23-0.4,0.57-0.71,1.01-0.94c0.44-0.22,0.94-0.34,1.49-0.34c0.39,0,0.71,0.07,0.96,0.22c0.25,0.14,0.44,0.33,0.58,0.56
		c0.14,0.23,0.23,0.5,0.28,0.79c0.05,0.3,0.08,0.6,0.08,0.9V15.94z"/>
	<path d="M133.8,15.62c-0.22,0.1-0.48,0.19-0.79,0.29c-0.31,0.1-0.64,0.14-0.98,0.14c-0.22,0-0.43-0.03-0.63-0.08
		c-0.2-0.06-0.37-0.15-0.52-0.27c-0.15-0.12-0.27-0.28-0.35-0.48c-0.09-0.2-0.13-0.43-0.13-0.71v-3.61h-0.83V9.65h0.83V7.61H132
		v2.04h1.32v1.24H132v3.07c0,0.22,0.06,0.38,0.17,0.47c0.12,0.09,0.26,0.14,0.43,0.14s0.33-0.03,0.49-0.08
		c0.16-0.06,0.29-0.1,0.38-0.14L133.8,15.62z"/>
	<path d="M137.39,16.06c-0.51,0-0.97-0.09-1.38-0.26c-0.41-0.18-0.75-0.41-1.04-0.71c-0.28-0.3-0.5-0.65-0.65-1.04
		c-0.15-0.39-0.23-0.8-0.23-1.24c0-0.44,0.08-0.86,0.23-1.25c0.15-0.39,0.37-0.74,0.65-1.04s0.63-0.54,1.04-0.71
		c0.41-0.18,0.87-0.26,1.38-0.26s0.97,0.09,1.37,0.26c0.4,0.18,0.75,0.41,1.03,0.71c0.28,0.3,0.5,0.65,0.65,1.04
		c0.15,0.39,0.23,0.81,0.23,1.25c0,0.43-0.08,0.84-0.23,1.24c-0.15,0.39-0.37,0.74-0.65,1.04c-0.28,0.3-0.63,0.54-1.03,0.71
		C138.36,15.97,137.9,16.06,137.39,16.06z M135.74,12.81c0,0.28,0.04,0.53,0.13,0.76s0.2,0.43,0.35,0.59
		c0.15,0.17,0.32,0.3,0.52,0.39c0.2,0.09,0.42,0.14,0.65,0.14s0.45-0.05,0.65-0.14c0.2-0.09,0.37-0.22,0.52-0.39s0.26-0.37,0.35-0.6
		s0.13-0.49,0.13-0.77c0-0.27-0.04-0.52-0.13-0.76s-0.2-0.43-0.35-0.6s-0.32-0.3-0.52-0.39c-0.2-0.09-0.42-0.14-0.65-0.14
		s-0.45,0.05-0.65,0.14c-0.2,0.1-0.37,0.23-0.52,0.4c-0.15,0.17-0.26,0.37-0.35,0.6C135.79,12.28,135.74,12.54,135.74,12.81z"/>
	<path d="M145.5,11.04c-0.49,0.01-0.92,0.1-1.31,0.28c-0.38,0.18-0.66,0.45-0.83,0.81v3.8h-1.61V9.65h1.48V11
		c0.11-0.22,0.24-0.41,0.4-0.58c0.15-0.17,0.32-0.32,0.49-0.45s0.35-0.23,0.53-0.29s0.35-0.1,0.52-0.1c0.09,0,0.15,0,0.2,0
		s0.09,0,0.13,0.01V11.04z"/>
	<path d="M149.15,15.94V7.42h1.66v7.07h4.34v1.45H149.15z"/>
	<path d="M158.65,16.06c-0.51,0-0.97-0.09-1.38-0.26s-0.75-0.41-1.04-0.71c-0.28-0.3-0.5-0.65-0.65-1.04
		c-0.15-0.39-0.23-0.8-0.23-1.24c0-0.44,0.08-0.86,0.23-1.25c0.15-0.39,0.37-0.74,0.65-1.04s0.63-0.54,1.04-0.71
		c0.41-0.18,0.87-0.26,1.38-0.26s0.97,0.09,1.37,0.26c0.4,0.18,0.75,0.41,1.03,0.71s0.5,0.65,0.65,1.04
		c0.15,0.39,0.23,0.81,0.23,1.25c0,0.43-0.08,0.84-0.23,1.24c-0.15,0.39-0.37,0.74-0.65,1.04c-0.28,0.3-0.62,0.54-1.03,0.71
		C159.62,15.97,159.16,16.06,158.65,16.06z M157.01,12.81c0,0.28,0.04,0.53,0.13,0.76s0.2,0.43,0.35,0.59
		c0.15,0.17,0.32,0.3,0.52,0.39c0.2,0.09,0.42,0.14,0.65,0.14c0.23,0,0.45-0.05,0.65-0.14c0.2-0.09,0.37-0.22,0.52-0.39
		c0.15-0.17,0.26-0.37,0.35-0.6s0.13-0.49,0.13-0.77c0-0.27-0.04-0.52-0.13-0.76s-0.2-0.43-0.35-0.6c-0.15-0.17-0.32-0.3-0.52-0.39
		c-0.2-0.09-0.42-0.14-0.65-0.14c-0.23,0-0.45,0.05-0.65,0.14c-0.2,0.1-0.37,0.23-0.52,0.4c-0.15,0.17-0.26,0.37-0.35,0.6
		C157.05,12.28,157.01,12.54,157.01,12.81z"/>
	<path d="M164.73,16.06c-0.3,0-0.59-0.05-0.85-0.15c-0.26-0.1-0.49-0.24-0.68-0.42c-0.19-0.18-0.34-0.39-0.45-0.63
		c-0.11-0.24-0.16-0.5-0.16-0.79c0-0.3,0.07-0.57,0.2-0.82s0.32-0.47,0.55-0.64s0.52-0.31,0.85-0.41c0.33-0.1,0.69-0.15,1.08-0.15
		c0.28,0,0.55,0.02,0.82,0.07c0.27,0.05,0.51,0.12,0.71,0.2v-0.36c0-0.42-0.12-0.74-0.35-0.96c-0.24-0.22-0.59-0.34-1.05-0.34
		c-0.34,0-0.66,0.06-0.98,0.18s-0.65,0.3-0.98,0.53l-0.49-1.02c0.81-0.54,1.68-0.8,2.62-0.8c0.9,0,1.61,0.22,2.11,0.67
		s0.75,1.09,0.75,1.93v1.96c0,0.17,0.03,0.29,0.09,0.36c0.06,0.07,0.16,0.11,0.29,0.12v1.37c-0.27,0.06-0.51,0.08-0.71,0.08
		c-0.3,0-0.54-0.07-0.7-0.2c-0.16-0.14-0.27-0.32-0.31-0.54l-0.04-0.35c-0.28,0.37-0.62,0.65-1.02,0.84
		C165.62,15.96,165.19,16.06,164.73,16.06z M165.19,14.88c0.27,0,0.53-0.05,0.77-0.14c0.24-0.1,0.43-0.22,0.57-0.38
		c0.18-0.14,0.26-0.29,0.26-0.46v-0.72c-0.19-0.07-0.4-0.13-0.62-0.17c-0.22-0.04-0.44-0.07-0.65-0.07c-0.42,0-0.76,0.09-1.02,0.28
		c-0.26,0.19-0.4,0.43-0.4,0.71c0,0.27,0.1,0.5,0.31,0.68C164.63,14.79,164.89,14.88,165.19,14.88z"/>
	<path d="M175.75,15.94h-1.61v-3.53c0-0.5-0.09-0.87-0.26-1.1s-0.42-0.35-0.73-0.35c-0.16,0-0.32,0.03-0.49,0.1
		c-0.17,0.06-0.33,0.15-0.47,0.27c-0.15,0.12-0.28,0.25-0.4,0.41c-0.12,0.16-0.21,0.34-0.26,0.53v3.67h-1.61V9.65h1.45v1.16
		c0.23-0.4,0.57-0.71,1.01-0.94c0.44-0.22,0.94-0.34,1.49-0.34c0.39,0,0.71,0.07,0.96,0.22s0.44,0.33,0.58,0.56
		c0.14,0.23,0.23,0.5,0.28,0.79c0.05,0.3,0.08,0.6,0.08,0.9V15.94z"/>
	<path d="M179.53,16.06c-0.53,0-1.04-0.08-1.55-0.25c-0.5-0.17-0.94-0.41-1.3-0.72l0.6-1.01c0.38,0.27,0.76,0.48,1.12,0.62
		c0.36,0.14,0.73,0.21,1.09,0.21c0.32,0,0.57-0.06,0.76-0.18c0.18-0.12,0.28-0.29,0.28-0.52c0-0.22-0.11-0.39-0.32-0.49
		c-0.22-0.1-0.57-0.22-1.06-0.36c-0.41-0.11-0.76-0.22-1.04-0.32s-0.52-0.22-0.7-0.35c-0.18-0.13-0.3-0.28-0.38-0.46
		s-0.12-0.38-0.12-0.62c0-0.32,0.06-0.61,0.19-0.86c0.12-0.26,0.3-0.47,0.52-0.65c0.22-0.18,0.49-0.32,0.79-0.41
		c0.3-0.1,0.63-0.14,0.98-0.14c0.47,0,0.91,0.07,1.33,0.2c0.41,0.14,0.79,0.36,1.13,0.66l-0.65,0.97c-0.32-0.24-0.63-0.42-0.93-0.53
		c-0.3-0.11-0.6-0.17-0.89-0.17c-0.27,0-0.5,0.06-0.68,0.17c-0.18,0.11-0.28,0.29-0.28,0.54c0,0.11,0.02,0.2,0.07,0.28
		c0.04,0.07,0.11,0.14,0.21,0.19c0.1,0.06,0.22,0.11,0.38,0.16c0.16,0.05,0.35,0.11,0.58,0.16c0.43,0.11,0.8,0.22,1.11,0.34
		c0.31,0.11,0.56,0.24,0.76,0.38s0.34,0.31,0.43,0.5s0.14,0.41,0.14,0.68c0,0.62-0.23,1.1-0.68,1.46S180.31,16.06,179.53,16.06z"/>
</g>
<g>
	<g>
		<path class="st0" d="M23.22,14.31l-0.6,5.01c-0.58,4.82-1.64,1.89-2.01,0.14L20,16.55c-0.23-1.13-0.93-1.25-1.24,0.02l-0.81,3.35
			c-0.72,2.99-1.96,4.45-1.96-0.15c0-2.12,0-3.7,0-5.82c0-1.24-0.16-1.91-0.66-2.58v-3.8l11.3-3.68c5.8-1.89,4.87-0.65,0.23,3.42
			C26.07,8,25.47,8.59,25.01,9.12l0,0c0,0-2.23-0.14-3.14,0.89c0,0,1.72-0.31,2.51-0.08C23.45,11.33,23.44,12.45,23.22,14.31z"/>
		<path class="st0" d="M19.8,4.91c-1.37,0-2.66-1.1-2.89-2.46C16.68,1.1,17.61,0,18.98,0c1.37,0,2.66,1.1,2.89,2.46
			C22.1,3.81,21.17,4.91,19.8,4.91z"/>
	</g>
	<g>
		<path class="st1" d="M7.45,14.31l0.6,5.01c0.58,4.82,1.64,1.89,2.01,0.14l0.6-2.91c0.23-1.13,0.93-1.25,1.24,0.02l0.81,3.35
			c0.72,2.99,1.96,4.45,1.96-0.15c0-2.12,0-3.7,0-5.82c0-1.24,0.16-1.91,0.66-2.58v-3.8L4.03,3.9c-5.8-1.89-4.87-0.65-0.23,3.42
			C4.59,8,5.19,8.59,5.65,9.12c0,0,2.24-0.14,3.14,0.89c0,0-1.72-0.31-2.51-0.08C7.21,11.33,7.22,12.45,7.45,14.31z"/>
		<path class="st1" d="M10.86,4.91c1.37,0,2.66-1.1,2.89-2.46C13.98,1.1,13.05,0,11.68,0c-1.37,0-2.66,1.1-2.89,2.46
			C8.57,3.81,9.49,4.91,10.86,4.91z"/>
	</g>
	<path class="st0" d="M6,9.55c0,0,5.68-0.42,1.15,2.53C5.69,11.55,5.84,9.88,6,9.55z"/>
	<path class="st1" d="M24.66,9.55c0,0-5.68-0.42-1.15,2.53C24.97,11.55,24.82,9.88,24.66,9.55z"/>
</g>
</svg>
